<?xml version="1.0" encoding="UTF-8" standalone="no"?>
<!-- Created with Inkscape (http://www.inkscape.org/) -->

<svg
   width="53.468426mm"
   height="61.54092mm"
   viewBox="0 0 53.468426 61.54092"
   version="1.1"
   id="svg5"
   xml:space="preserve"
   inkscape:version="1.2.2 (b0a8486541, 2022-12-01)"
   sodipodi:docname="cat.svg"
   xmlns:inkscape="http://www.inkscape.org/namespaces/inkscape"
   xmlns:sodipodi="http://sodipodi.sourceforge.net/DTD/sodipodi-0.dtd"
   xmlns="http://www.w3.org/2000/svg"
   xmlns:svg="http://www.w3.org/2000/svg"><sodipodi:namedview
     id="namedview7"
     pagecolor="#ffffff"
     bordercolor="#999999"
     borderopacity="1"
     inkscape:showpageshadow="0"
     inkscape:pageopacity="0"
     inkscape:pagecheckerboard="0"
     inkscape:deskcolor="#d1d1d1"
     inkscape:document-units="mm"
     showgrid="false"
     inkscape:zoom="3.0859147"
     inkscape:cx="64.162499"
     inkscape:cy="144.52765"
     inkscape:window-width="1920"
     inkscape:window-height="1048"
     inkscape:window-x="0"
     inkscape:window-y="32"
     inkscape:window-maximized="1"
     inkscape:current-layer="svg5" /><defs
     id="defs2"><linearGradient
       id="linearGradient848"
       inkscape:swatch="solid"><stop
         style="stop-color:#000000;stop-opacity:1;"
         offset="0"
         id="stop846" /></linearGradient></defs><g
     inkscape:label="main"
     inkscape:groupmode="layer"
     id="layer1"
     style="display:inline"
     transform="translate(-82.419429,-72.251066)"><path
       style="display:inline;fill:#ffffff;fill-opacity:1;stroke:none;stroke-width:0.8;stroke-linecap:square;stroke-linejoin:round;stroke-dasharray:none;stroke-opacity:1;paint-order:fill markers stroke"
       d="m 111.47317,76.13557 c 0,0 0.89518,-1.428956 1.86858,-2.363142 0.9734,-0.934182 1.33652,-0.97106 1.33652,-0.97106 0,0 1.49769,-0.497689 2.24424,0.318677 0.74656,0.816367 0.68433,2.544551 0.6216,2.76487 -0.0627,0.220321 -0.30804,2.740998 -0.30804,2.740998 0,0 9.41597,4.484876 12.09104,6.283532 l 0.52792,0.381571 c 0,0 0.94924,-1.706874 1.6766,-2.458584 0.72736,-0.751711 2.99476,-2.081307 3.82702,1.162207 0.83226,3.243515 -2.61432,13.434333 -6.20265,19.887981 l -0.3781,0.67788 c 0,0 1.50055,0.85783 2.70789,1.98412 0,0 2.15036,1.8705 -0.26109,2.82117 -0.0565,0.0397 -0.92288,0.0855 -1.86331,-0.0998 -2.09063,-0.74005 -2.08114,-0.75957 -2.08114,-0.75957 0,0 -1.93987,8.27737 -11.16233,19.8517 l 2.0258,1.78184 c 0,0 0.74145,0.71122 0.76041,1.41933 0,0 0.17363,1.64977 -1.18175,1.81243 -1.35539,0.16266 -2.57133,-0.74547 -2.57133,-0.74547 l -1.63102,-1.28428 c 0,0 -1.72769,1.36851 -6.29886,1.04648 0,0 -5.23113,-0.20115 -8.337424,-2.38488 0,0 -3.755768,-2.3819 -6.408665,-6.05076 0,0 -0.515329,-1.07624 -2.404164,-0.55041 0,0 -3.924336,0.87071 -6.212746,-1.86959 0,0 -0.731319,-0.75469 -0.963251,-1.98482 0,0 -0.165198,-1.12437 0.01016,-1.90632 0,0 0.452405,-1.846 1.881627,-2.31931 0,0 1.509356,-0.49686 1.628766,0.94668 0,0 0.0163,0.78276 -0.826297,1.39051 0,0 -0.398221,0.32806 -0.425547,0.80441 0,0 -0.08014,0.97038 0.539754,1.55624 0,0 0.573562,0.81481 2.11188,1.0982 0,0 1.498145,0.20393 2.419629,-0.10811 0,0 0.839608,-0.40131 0.957326,-1.2315 0,0 1.470092,-7.88935 4.567387,-13.65784 0,0 1.327817,-2.95299 3.652541,-7.395427 0,0 1.666934,-3.261008 3.466714,-6.835268 0,0 0.96634,-2.498371 2.80501,-5.54039 l 2.34792,-4.417448 c 0,0 1.3797,-2.685502 1.9601,-3.541412 z"
       id="path12630"
       inkscape:label="fill"
       sodipodi:nodetypes="cscsccccsscccccccccscccccccccccccccccccccccc" /><g
       id="g25965"
       inkscape:label="patches"><path
         style="fill:#f7caaa;fill-opacity:1;stroke:#ff0000;stroke-width:0;stroke-linecap:round;stroke-linejoin:round;stroke-dasharray:none;stroke-opacity:1;paint-order:fill markers stroke"
         d="m 107.57127,83.145132 c 0,0 9.41283,8.837757 14.61839,-1.78947 l 0.1514,-0.337097 -4.9825,-2.376286 0.22505,-3.578952 -0.55588,-1.841516 -1.41651,-0.664678 -1.92481,0.791591 -1.80958,2.102124 -3.18236,5.054485 z"
         id="path24734"
         inkscape:label="path ear" /><path
         style="fill:#f7caaa;fill-opacity:1;stroke:#ff0000;stroke-width:0;stroke-linecap:round;stroke-linejoin:round;stroke-dasharray:none;stroke-opacity:1;paint-order:fill markers stroke"
         d="m 83.621524,121.30763 1.855513,-1.51649 -0.393208,-0.90629 0.233585,-1.01793 0.386596,-0.41308 0.620924,-0.69429 0.0096,-0.92095 -0.62724,-0.49742 -1.23621,0.12628 -1.030113,0.92876 -0.545962,1.33524 -0.134953,1.02963 0.197146,1.32964 0.394946,0.68055 z"
         id="path24730"
         inkscape:label="patch tail" /><path
         style="display:inline;fill:#f7caaa;fill-opacity:1;stroke:#ff0000;stroke-width:0;stroke-linecap:round;stroke-linejoin:round;stroke-dasharray:none;stroke-opacity:1;paint-order:fill markers stroke"
         d="m 98.949548,100.28238 c 0,0 1.544242,2.96631 0.211744,6.58464 0,0 -1.251029,4.1136 -1.474815,4.99548 0,0 -0.365536,1.26105 -0.398853,2.20228 0,0 -0.007,0.41569 -0.336668,0.72792 0,0 -0.816806,0.61518 -1.687719,0.70302 -0.08586,0.006 -1.242147,0.13574 -2.092383,-0.35287 0,0 -0.34576,-0.22777 -0.430139,-0.58207 0,0 0.937271,-4.60141 1.991519,-6.24766 1.054247,-1.64624 2.96864,-7.14242 3.713711,-7.73071 0.745071,-0.5883 0.503603,-0.30003 0.503603,-0.30003 z"
         id="path24193"
         inkscape:label="patch body" /><path
         style="fill:#f7caaa;fill-opacity:1;stroke:#ff0000;stroke-width:0;stroke-linecap:round;stroke-linejoin:round;stroke-dasharray:none;stroke-opacity:1;paint-order:fill markers stroke"
         d="m 114.67684,132.21198 2.16747,-3.14772 1.55122,1.29908 0.4412,1.08489 -0.15989,1.23579 -0.92705,0.71708 -0.78336,-0.0449 -1.47785,-0.43078 z"
         id="path24732"
         inkscape:label="patch paw" /></g><g
       id="g13103"
       inkscape:label="eyes"
       style="stroke:#989792;stroke-opacity:1"><path
         style="fill:none;fill-opacity:1;stroke:#989792;stroke-width:0.8;stroke-linecap:round;stroke-dasharray:none;stroke-opacity:1;paint-order:fill markers stroke"
         d="m 116.27427,89.204196 2.56541,0.555233"
         id="path12780"
         inkscape:label="left eye" /><path
         style="fill:none;fill-opacity:1;stroke:#989792;stroke-width:0.8;stroke-linecap:round;stroke-linejoin:round;stroke-dasharray:none;stroke-opacity:1;paint-order:fill markers stroke"
         d="m 123.66347,91.882562 c 0,0 1.60992,0.90859 2.08687,1.755455"
         id="path12782"
         inkscape:label="right eye" /></g><g
       id="g13099"
       inkscape:label="nose"
       style="stroke:#989792;stroke-opacity:1"><path
         style="fill:none;fill-opacity:1;stroke:#989792;stroke-width:0.600001;stroke-linecap:round;stroke-linejoin:round;stroke-dasharray:none;stroke-opacity:1;paint-order:fill markers stroke"
         d="m 120.78649,92.306703 c -0.29689,0.569167 -1.42497,0.602817 -1.42497,0.602817 v 0 c 0.55956,-0.03266 1.58691,-0.351078 1.53757,-0.295156 0.14404,0.746634 0.30362,1.142284 0.30362,1.142284 0,0 -0.37071,-1.303897 -0.12705,-1.572874"
         id="path12784"
         sodipodi:nodetypes="cccccc"
         inkscape:label="mouth" /><path
         style="fill:#99968d;fill-opacity:1;stroke:#989792;stroke-width:0.1;stroke-linecap:round;stroke-linejoin:round;stroke-dasharray:none;stroke-opacity:1;paint-order:fill markers stroke"
         id="path12923"
         sodipodi:type="arc"
         sodipodi:cx="121.07778"
         sodipodi:cy="91.560379"
         sodipodi:rx="0.71674836"
         sodipodi:ry="0.8109991"
         sodipodi:start="0"
         sodipodi:end="6.2803247"
         sodipodi:open="true"
         sodipodi:arc-type="arc"
         d="m 121.79453,91.560379 a 0.71674836,0.8109991 0 0 1 -0.71624,0.810999 0.71674836,0.8109991 0 0 1 -0.71726,-0.809839 0.71674836,0.8109991 0 0 1 0.71521,-0.812157 0.71674836,0.8109991 0 0 1 0.71829,0.808677"
         inkscape:label="button" /></g><g
       id="g22063"
       inkscape:label="ears"><path
         style="fill:#ffffff;fill-opacity:1;stroke:#989792;stroke-width:0.4;stroke-linecap:round;stroke-linejoin:round;stroke-dasharray:none;stroke-opacity:1;paint-order:fill markers stroke"
         d="m 113.34901,76.3425 c 0,0 0.6496,-1.201581 1.71577,-1.717345 0,0 0.77768,-0.3413 0.94306,0.463607 0,0 -0.0205,0.767775 -0.13154,1.264193 0,0 -0.11611,0.647339 -0.10452,0.594199 0,0 0.0181,0.577496 -0.59279,0.605223 0,0 -0.73791,-0.01427 -1.01143,-0.08031 -0.0205,-0.01266 -0.73275,-0.166732 -0.86095,-0.677898 z"
         id="path13093"
         sodipodi:nodetypes="ccccccccc"
         inkscape:label="left ear" /><path
         style="display:inline;fill:#ffffff;fill-opacity:1;stroke:#989792;stroke-width:0.4;stroke-linecap:round;stroke-linejoin:round;stroke-dasharray:none;stroke-opacity:1;paint-order:fill markers stroke"
         d="m 131.57441,85.35228 c 0,0 0.6496,-1.201581 1.71577,-1.717345 0,0 0.77768,-0.3413 0.94306,0.463607 0,0 -0.0205,0.767775 -0.13154,1.264193 0,0 -0.11611,0.647339 -0.10452,0.594199 0,0 0.0181,0.577496 -0.59279,0.605223 0,0 -0.73791,-0.01427 -1.01143,-0.08031 -0.0205,-0.01266 -0.73275,-0.166732 -0.86095,-0.677898 z"
         id="path13093-3"
         sodipodi:nodetypes="ccccccccc"
         inkscape:label="right ear" /></g><g
       id="g23777"
       inkscape:label="internal legs"><path
         style="fill:none;fill-opacity:1;stroke:#989792;stroke-width:0.8;stroke-linecap:round;stroke-linejoin:round;stroke-dasharray:none;stroke-opacity:1;paint-order:fill markers stroke"
         d="m 111.99429,96.783399 c 0,0 2.36696,1.112293 2.74498,1.729714 0,0 0.69403,0.597871 0.56134,1.329678 0,0 -0.0618,0.831789 -1.05869,1.021489 0,0 -1.05029,0.11095 -1.75468,-0.15002 l -2.39628,-0.876613"
         id="path23771"
         inkscape:label="leg down" /><path
         style="fill:none;fill-opacity:1;stroke:#989792;stroke-width:0.799999;stroke-linecap:round;stroke-linejoin:round;stroke-dasharray:none;stroke-opacity:1;paint-order:fill markers stroke"
         d="m 100.78076,118.30575 c 0,0 1.08604,1.54899 1.2788,2.29461 0.19276,0.74561 0.31945,1.12778 0.0906,1.7158 -0.006,0.0522 -0.49582,1.00322 -1.66655,0.62518 0,0 -2.006119,-1.20728 -2.621756,-2.32377 l -0.516595,-0.69142"
         id="path23773"
         inkscape:label="leg up" /></g><path
       style="display:inline;fill:none;fill-opacity:1;stroke:#989792;stroke-width:0.8;stroke-linecap:square;stroke-linejoin:round;stroke-dasharray:none;stroke-opacity:1;paint-order:fill markers stroke"
       d="m 111.47317,76.13557 c 0,0 0.89518,-1.428956 1.86858,-2.363142 0.9734,-0.934182 1.33652,-0.97106 1.33652,-0.97106 0,0 1.49769,-0.497689 2.24424,0.318677 0.74656,0.816367 0.68433,2.544551 0.6216,2.76487 -0.0627,0.220321 -0.30804,2.740998 -0.30804,2.740998 0,0 9.41597,4.484876 12.09104,6.283532 l 0.52792,0.381571 c 0,0 0.94924,-1.706874 1.6766,-2.458584 0.72736,-0.751711 2.99476,-2.081307 3.82702,1.162207 0.83226,3.243515 -2.61432,13.434333 -6.20265,19.887981 l -0.3781,0.67788 c 0,0 1.50055,0.85783 2.70789,1.98412 0,0 2.15036,1.8705 -0.26109,2.82117 -0.0565,0.0397 -0.92288,0.0855 -1.86331,-0.0998 -2.09063,-0.74005 -2.08114,-0.75957 -2.08114,-0.75957 0,0 -1.93987,8.27737 -11.16233,19.8517 l 2.0258,1.78184 c 0,0 0.74145,0.71122 0.76041,1.41933 0,0 0.17363,1.64977 -1.18175,1.81243 -1.35539,0.16266 -2.57133,-0.74547 -2.57133,-0.74547 l -1.63102,-1.28428 c 0,0 -1.72769,1.36851 -6.29886,1.04648 0,0 -5.23113,-0.20115 -8.337424,-2.38488 0,0 -3.755768,-2.3819 -6.408665,-6.05076 0,0 -0.515329,-1.07624 -2.404164,-0.55041 0,0 -3.924336,0.87071 -6.212746,-1.86959 0,0 -0.731319,-0.75469 -0.963251,-1.98482 0,0 -0.165198,-1.12437 0.01016,-1.90632 0,0 0.452405,-1.846 1.881627,-2.31931 0,0 1.509356,-0.49686 1.628766,0.94668 0,0 0.0163,0.78276 -0.826297,1.39051 0,0 -0.398221,0.32806 -0.425547,0.80441 0,0 -0.08014,0.97038 0.539754,1.55624 0,0 0.573562,0.81481 2.11188,1.0982 0,0 1.498145,0.20393 2.419629,-0.10811 0,0 0.839608,-0.40131 0.957326,-1.2315 0,0 1.470092,-7.88935 4.567387,-13.65784 0,0 1.327817,-2.95299 3.652541,-7.395427 0,0 1.666934,-3.261008 3.466714,-6.835268 0,0 0.96634,-2.498371 2.80501,-5.54039 l 2.34792,-4.417448 c 0,0 1.3797,-2.685502 1.9601,-3.541412 z"
       id="path25710"
       inkscape:label="outline"
       sodipodi:nodetypes="cscsccccsscccccccccscccccccccccccccccccccccc" /></g></svg>
